<?xml version="1.0" encoding="utf-8"?>
<!-- Generator: Adobe Illustrator 26.0.1, SVG Export Plug-In . SVG Version: 6.00 Build 0)  -->
<svg version="1.1" id="Layer_1" xmlns="http://www.w3.org/2000/svg" xmlns:xlink="http://www.w3.org/1999/xlink" x="0px" y="0px"
	 viewBox="0 0 394.3 129.6" style="enable-background:new 0 0 394.3 129.6;" xml:space="preserve">
<path d="M30.4,14.8l3.2-7.9l3,7.9C36.6,14.8,30.4,14.8,30.4,14.8z M37.4,16.8c0.9,2.3,1.6,4.6,2.4,7.1c1-0.1,1.9-0.2,2.9-0.2
	s1.9,0.1,2.9,0.2L36.2,0.3c-0.4,0.1-0.9,0.1-1.3,0.1s-0.9,0-1.3-0.1l-9.7,23.6c0.5,0,1.1-0.1,1.6-0.1s1.1,0.1,1.6,0.1
	c0.6-2.3,1.5-4.5,2.4-7h7.9V16.8z M61.8,21.3c3,0,5.5-0.2,7.8-0.5c-0.1,0.5-0.2,1-0.2,1.5s0.1,1,0.2,1.5H56.7V0.6
	c0.9,0.1,1.7,0.2,2.5,0.2c0.9,0,1.7-0.1,2.6-0.2C61.8,0.6,61.8,21.3,61.8,21.3z M81.8,0.6c0.9,0.1,1.7,0.2,2.6,0.2s1.7-0.1,2.5-0.2
	v23.3c-0.9-0.1-1.7-0.2-2.5-0.2s-1.7,0.1-2.6,0.2V0.6z M119,20l-0.7,2.9c-2,1.1-4.5,1.5-6.7,1.5c-7.3,0-12.8-4.5-12.8-11.5
	C98.8,4,104.9,0,112.3,0c2.2,0,5,0.6,6.9,1.7c-0.3,1.2-0.5,2.3-0.8,3.5H118c-1.3-1.8-3.4-3.1-5.6-3.1c-5.6,0-7.9,5.4-7.9,10.4
	c0,5.8,2.9,9.9,8.1,9.9c2.1,0,4.6-1.1,6.1-2.6L119,20z M144,0.6c-0.1,0.5-0.2,1-0.2,1.5s0.1,1,0.2,1.5c-2.1-0.3-4.4-0.5-7.9-0.5v7.3
	h3.5c1.5,0,2.9-0.1,4.2-0.3c-0.1,0.5-0.2,1-0.2,1.5s0.1,1,0.2,1.5c-1.3-0.2-2.7-0.3-4.2-0.3h-3.5v8.6c3.5,0,5.8-0.2,7.9-0.5
	c-0.1,0.5-0.2,1-0.2,1.5s0.1,1,0.2,1.5h-13V0.6H144z M183.7,5c-0.7-1.8-2-3-3.9-3c-2.7,0-3.7,1.4-3.7,3.3c0,4.6,10.3,3.7,10.3,11.5
	c0,4.4-3.7,7.5-9,7.5c-1.9,0-3.9-0.4-5.5-1.5c0.4-1.4,0.8-2.9,1-4.3h0.6c0.5,2.3,2.3,3.7,4.7,3.7c2.1,0,4-1.2,4-3.5
	c0-5.4-10.1-3.5-10.1-11.7c0-3.9,2.7-7.1,7.9-7.1c2.4,0,4.6,0.9,5.4,1.6c-0.4,1.1-0.7,2.2-1.1,3.4L183.7,5L183.7,5z M202.9,2.4h2.1
	c1.8,0,3.2,1.8,3.2,4.5c0,2.1-0.8,4-3,4.6c-0.7,0.2-1.5,0.2-2.2,0.2V2.4H202.9z M202.9,13.7c6.1,0,10.5-1.3,10.5-7.3
	c0-3.8-2.5-5.7-7.3-5.7h-8.4V24c0.9-0.1,1.7-0.2,2.5-0.2c0.9,0,1.7,0.1,2.6,0.2L202.9,13.7L202.9,13.7z M229.7,2.4
	c2.1,0,4.6-0.3,5.2,2.5c0.1,0.7,0.2,1.2,0.2,1.7c0,3.5-1.8,5.2-5.3,4.9L229.7,2.4L229.7,2.4z M224.6,23.9c0.8-0.1,1.7-0.2,2.5-0.2
	s1.7,0.1,2.5,0.2V13h0.2c0.7,1.3,1.7,2.9,2.2,3.8l4,7.1c1-0.1,2-0.2,3.1-0.2s2.1,0.1,3.1,0.2l-1.3-2.1c-2-3.2-4.1-6.3-6-9.6
	c3.2-0.7,5.3-2.8,5.3-6.1c0-2.3-1-3.8-3-4.9c-1.4-0.7-3.9-0.7-5.5-0.7h-7.2L224.6,23.9L224.6,23.9z M253.7,0.6
	c0.8,0.1,1.7,0.2,2.5,0.2s1.7-0.1,2.5-0.2v23.3c-0.8-0.1-1.7-0.2-2.5-0.2s-1.7,0.1-2.5,0.2L253.7,0.6L253.7,0.6z M272.6,0.6h3.4
	c4.8,5.3,9.9,10.4,14.7,15.9V0.6c0.4,0.1,0.9,0.1,1.4,0.1c0.4,0,0.9,0,1.4-0.1v23.3h-2.9c-3.9-4.4-7.6-8.6-11.5-12.6l-3.7-3.9v16.5
	c-0.4,0-0.9-0.1-1.4-0.1c-0.4,0-0.9,0.1-1.4,0.1V0.6z M328.1,22.8c-3.1,0.8-6.1,1.5-9.1,1.5c-7.2,0-13.6-3.6-13.6-11.6
	c0-8.5,6.2-12.8,14-12.8c2.9,0,5.6,0.6,8.2,2.1c-0.5,1.1-0.8,2.3-1,3.4h-0.5c-1.6-2.3-4-3.5-6.7-3.5c-5.7,0-8.5,5.1-8.5,10.8
	c0,5.9,3,9.5,8.2,9.5c1.7,0,2.9-0.5,3.7-1v-8c0.8,0.1,1.7,0.2,2.5,0.2s1.7-0.1,2.5-0.2v9.6H328.1z M351.5,5c-0.7-1.8-2-3-3.9-3
	c-2.7,0-3.7,1.4-3.7,3.3c0,4.6,10.3,3.7,10.3,11.5c0,4.4-3.7,7.5-9,7.5c-1.9,0-3.9-0.4-5.5-1.5c0.4-1.4,0.8-2.9,1-4.3h0.6
	c0.5,2.3,2.3,3.7,4.7,3.7c2.1,0,4-1.2,4-3.5c0-5.4-10.1-3.5-10.1-11.7c0-3.9,2.7-7.1,7.9-7.1c2.4,0,4.6,0.9,5.4,1.6
	c-0.4,1.1-0.7,2.2-1.1,3.4L351.5,5L351.5,5z M54.4,81.3c-10.4,3.1-38.6,11.8-50.5,21c-0.7,0.5-0.8,1.4-0.3,2.1s2.3,1.4,3,0.9
	c1.4-1,4.2-3.9,8.4-6C27.5,93,46.2,86.4,55.7,83.9c13.1-3.4,33.1-7,45.2-5.6c3.2,0.4,4.2,1.1,4.3,1.5c0.2,1.2-3.4,4.4-8.1,6.7
	c-2.8,1.3-12.5,5.4-22.8,9.8c-10.4,4.4-21.1,9-25.2,10.8C34.5,113.8,6,125.6,2.6,125.6c-0.8,0-2.6,1.3-2.6,2.1
	c0,1.6,3.9,1.9,4.7,1.9c5.3,0,45.3-19.6,45.7-19.8c4-1.8,14.7-6.4,25.1-10.8c10.3-4.4,21.6-8.7,24.4-10c0.4-0.2,11.3-4,10.4-9.9
	c-0.5-3.3-5.6-4.1-7.1-4.3C87.6,73,65.6,78,54.4,81.3z"/>
<path d="M48.6,89.2c-5.6,7.6-13.1,14-16.1,15.5c-0.7,0.4-1,1.3-0.7,2c0.4,0.7,2.9,1.2,3.7,0.8c3.9-1.9,10-9.2,15.5-16.6
	c0.5-0.7,0.3-1.9-0.4-2.4C49.9,88.1,49,88.5,48.6,89.2z M109.5,86.4c-2.4,0.8-18.8,8.8-24.5,15.1c-1.8,0.3-2.7-0.1-4-0.1
	c-0.8-0.1-1.5,0.6-1.6,1.4s0.8,1.3,1.6,1.3c0.9,0.1,1.7,0,2.8-0.1c-0.1,0.4-0.2,1.1-0.2,1.4c0,0.9,0.4,1.5,0.8,1.9
	c2.8,2.7,12.5-1.7,12.9-1.9c5.7-2.6,13.5-5.7,18.2-6.6c0.8-0.2,1.9-1.1,1.7-1.9c-0.2-0.8,0.1-1.2-0.8-1c-5.3,1.1-15,4.4-20.4,6.8
	c-2.9,1.3-4.7,1.8-6,1.4c-0.3-0.3-0.5-0.6-0.3-1c2.5-0.5,2.6-0.7,4.5-1.4l5.4-2.1c10.4-4,18.5-7.4,20.2-11.7
	c0.1-0.2,0.1-0.5,0.1-0.7c0-0.4-0.1-0.9-0.5-1.2C117,83.7,109.6,86.4,109.5,86.4L109.5,86.4z M110.4,89.3c1.9-0.6,4.1-1.2,4.4-0.6
	c-0.1,1.3-10.4,5.8-16.3,8.1L93.1,99c-0.2,0.1-0.5,0.2-0.7,0.2C98.6,94.7,107.9,90.1,110.4,89.3z"/>
<path d="M130.9,84.3c-3.1,1-10,3.8-10.9,6.3c-0.1,0.2-0.3,0.7-0.3,0.9c0,0.4,0.1,0.7,0.4,1.1c1.1,1.4,4.7,0.8,7.5,0.9l2.7,0.1
	c1.3,0.1,1.7,0.1,2.7,0.5c0.4,0.4-0.3,1-1.8,1.4c-3.8,1-9.7,1.7-11.4,1.8c-2.7,0.2-3.2,0.1-4.8-0.5c-0.8-0.3-2.2,0.1-2.8,0.7
	c-0.5,0.6-3,0.2-2.3,0.8c3.5,2.9,7.2,2.2,10.2,2c2.7-0.2,11.6-1.4,15.8-3c1.8-0.7,4.1-1.4,4.4-3c0.6-3-6.3-4-9.6-3.8
	c-2.3,0.1-3.3,0.5-4.2-0.4c-0.4-0.6,2.9-2.3,5.3-2.9c2.6-0.7,6.3-1.1,8.3-1.1c0.8,0,1.1-0.8,1.5-1.5c0.6-0.9,0.8-2.1,0-2.1
	C139.2,82.5,134.6,83.2,130.9,84.3L130.9,84.3z"/>
<path d="M169.3,74.2c-6.9,1.5-19.9,8.7-26.2,15.3c-2.5,0.5-3.6-0.3-4.6-0.3c-0.8,0-0.8,0.8-0.8,1.7c0,0.8,0.7,1.5,1.5,1.5
	c0.7,0,1.8-0.1,3.1-0.3c-0.2,0.5-0.4,1-0.4,1.5c0,0.6,0.2,1.1,0.6,1.5c0.6,0.7,2.6,2.1,13.2-2l2.1-0.8c5.9-2.2,16.5-5.9,22.6-11.5
	c0.6-0.6,0.6-1.5,0.1-2.1s-1.5-0.6-2.1-0.1c-5.7,5.3-16.4,9.3-22.1,11.4l-2.1,0.8c-4.8,1.9-7.4,1.6-6.9,0.3c1.8-0.4,2.9-0.8,5-1.5
	c4.3-1.5,22.3-9.8,24.5-12c0.9-1,0.8-1.3,0.8-1.8s-0.2-0.9-0.3-1.2C176.5,73.1,173.2,73.3,169.3,74.2L169.3,74.2z M171.2,76.6
	c1.5-0.3,1.4,0.2,1.1,0.5c-4.7,3.4-14,7.2-20.3,9.4C158.5,81.8,167.7,76.4,171.2,76.6z"/>
<path d="M200.8,71.4c-7.1,0.6-13.1,3.2-17.7,5.3c0.2-0.3,0.4-1.1,0-1.4c-0.7-0.5-2.1-0.3-2.6,0.4l-2.2,2.9c-0.2,0.1-0.4,0.2-0.7,0.4
	c-0.6,0.3-0.9,1-0.7,1.7c-3.1,4.3-6,7.6-6.6,9.3c-0.3,0.8,0.4,1.7,1.2,1.9c0.8,0.3,2.6-0.3,3.1-1.7c0.2-0.7,3.2-6.1,8.3-9.7
	c5.5-3.8,12.9-5.6,17.7-6c0.8-0.1,1.8-1,1.7-1.9C202.4,72,201.6,71.4,200.8,71.4L200.8,71.4z"/>
<path d="M202.1,71.6c-0.8,0.1-1.4,0.9-1.3,1.7c0.1,0.8,0.9,1.4,1.7,1.3c5.1-0.9,11.3,0.1,16.3-0.4c1.7-0.2,2.8-0.8,2.8-1.6
	s-0.2-2-1-2C215.6,70.6,205.7,71.1,202.1,71.6z"/>
<path d="M216.2,48.9c0.6-0.6,0.2-1.5-0.4-2c-0.6-0.6-1.9-1-2.4-0.4c0,0-1,0.9-1.8,2.8l-2.6,5.4c-7.1,15.3-25.6,53.7-28.7,59.7
	c-0.4,0.7,0.2,1.6,0.9,2s3.5,0.1,3.9-0.7c0.7-1.3,2-4.7,3.6-8.1c6-12.7,16.4-36.6,22.4-49.5C212.3,55.8,214.8,50.6,216.2,48.9z
	 M273.9,43.8c-15.3,2.2-37,8.9-39.8,10.9c-0.7,0.5-1.5,1.1-1,1.8s2.8,1.2,3.5,0.8c2-1.4,9.5-6,36.3-10.5c19.2-3.2,29.1-1,29.6,0.6
	c0.3,0.9-0.3,1.8-9.1,5.1c-8.8,3.3-46.9,15.3-50.6,15.9c-3.4,0.6-12.6,2.8-13.6,3.9c-0.6,0.6-0.5,1.4,0,2s2,1,2.6,0.5l2.3-0.7
	c0.9-0.5,3.3-1.8,8.2-2.9c4.6-1,51.3-15.5,55.7-17.4l1.8-0.7c3.9-1.5,8.7-3.4,7.8-6.9C305.6,39.7,281.3,42.7,273.9,43.8L273.9,43.8z
	"/>
<path d="M250.1,46.9c-0.9,1.6-23.2,39.9-29.4,53.8c-0.3,0.8-0.1,1.9,0.7,2.3c0.8,0.3,4.2-0.7,4.8-2.2c0.7-1.7,2.2-5.9,3.3-8.2
	c8-16.2,22.8-42.7,23-43c0.4-0.7,0.3-2.9-0.4-3.3C251.5,45.9,250.5,46.1,250.1,46.9L250.1,46.9z M268.8,69.2c-1.4-0.2-3,1.4-3,1.4
	c-3.3-0.9-10.5,0.3-16.2,4.2c-3.6,2.4-7.5,5.5-8.3,9.2c-0.2,1,0.1,1.9,0.8,2.5c4.1,2.9,13.9-3.2,13.9-3.2c0,0.4-1,2,1.9,1.8
	c1.5-0.1,1.8-0.5,2.2-1.1l9.6-13.2C270.8,69.8,269.7,69.3,268.8,69.2L268.8,69.2z M254.6,81.4c-2.1,1-5.7,2.7-7.2,1.8
	c-1.5-1,3.7-5.6,7.1-7.7c2.6-1.6,7.5-3.6,9.5-2.3c0,0-5.1,5.9-4.9,5.8L254.6,81.4L254.6,81.4z M305.9,63.1c-0.1-0.8-0.9-1.4-1.7-1.3
	c-9.9,1.5-20.4,6.2-26.8,10l1.7-1.9c0.4-0.7-0.2-1.1-0.9-1.6c-0.7-0.4-2.2-0.4-2.7,0.3l-8.3,13.2c-0.4,0.7-0.2,1.4,0.5,1.8
	s3.1-0.1,3.6-0.8l2-4.5c0.2-0.1,0.3-0.2,0.4-0.4c1.9-2.8,15.4-10.1,29.6-12.3C304.2,65.7,306,63.9,305.9,63.1L305.9,63.1z"/>
<path d="M320,38.1c-0.2,0.3-14.1,21.6-24,35.7c-3.4,4.9-8.3,10.9-9.4,12.4c-1.3,1.8,1.9,1.2,2.5,1.8c0.6,0.5,2.4-0.3,2.9-0.9
	c5-5.8,29.1-44.6,30-46.3c0.8-1.5,0.6-2.5,0.1-3.1C321.3,36.9,320.4,37.4,320,38.1L320,38.1z"/>
<path d="M345.8,54.8c-6.9-0.6-28.3,3.3-38,6.4c-0.8,0.3-2.1,0.9-1.8,1.7c0.3,0.8,1.1,1.2,1.9,1c9.3-3,31.7-5.8,37.6-5.9
	c0.8,0,1.7-0.9,1.6-1.7C347.1,55.4,346.7,54.8,345.8,54.8L345.8,54.8z M302.1,68.7c-0.1,0.8,1.7,3.6,2.5,3.6
	c5.5,0.4,33.6,1.5,56.1,5.5c15.9,2.8,25.3,6.9,29.3,10.6c1.1,1,2.3-0.2,2.9-0.7c0.5-0.4,1.9-2.1,1.3-2.7
	c-4.6-3.9-16.2-7.2-32.9-10.2c-22.6-4-51.7-7.6-57.1-8.1C303.2,66.7,302.2,67.8,302.1,68.7L302.1,68.7z"/>
</svg>
